<?xml version="1.0" encoding="UTF-8" standalone="no"?><!-- Generator: Gravit.io --><svg xmlns="http://www.w3.org/2000/svg" xmlns:xlink="http://www.w3.org/1999/xlink" style="isolation:isolate" viewBox="0 0 1920 1920" width="1920pt" height="1920pt"><defs><clipPath id="_clipPath_3a0VsReoI9UbZgASLHpmf1TCVBAZ9Rb5"><rect width="1920" height="1920"/></clipPath></defs><g clip-path="url(#_clipPath_3a0VsReoI9UbZgASLHpmf1TCVBAZ9Rb5)"><rect width="1920" height="1920" style="fill:rgb(0,0,0)" fill-opacity="0"/><g><path d=" M 1705.38 778.186 C 1702.331 779.295 1696.095 781.235 1691.66 782.344 C 1679.602 785.393 1670.455 790.937 1662.555 800.084 C 1658.674 804.658 1652.022 812.142 1647.725 816.715 L 1639.964 825.17 L 1638.994 848.731 C 1638.44 861.62 1637.747 876.311 1637.331 881.3 L 1636.499 890.309 L 1648.418 899.04 C 1654.932 903.891 1660.337 908.603 1660.476 909.435 C 1660.476 910.405 1661.03 914.147 1661.585 918.027 L 1662.832 924.957 L 1643.013 956.141 C 1620.7 991.066 1623.61 983.305 1618.621 1021.834 C 1617.373 1031.12 1617.373 1039.99 1618.621 1057.868 C 1619.452 1070.896 1621.115 1107.485 1622.363 1139.084 C 1623.472 1170.684 1624.996 1202.422 1625.689 1209.629 C 1626.521 1219.192 1626.382 1225.706 1624.996 1234.576 C 1623.887 1241.089 1622.363 1256.751 1621.393 1269.363 L 1619.73 1292.369 L 1624.026 1300.546 C 1629.015 1310.525 1631.926 1323.691 1645.785 1396.176 C 1651.606 1426.666 1657.843 1458.682 1659.783 1467.274 C 1661.585 1476.006 1663.109 1483.767 1663.109 1484.876 C 1663.109 1485.846 1656.734 1490.974 1648.973 1496.102 C 1625.273 1511.902 1609.058 1525.207 1565.539 1564.29 C 1538.375 1588.683 1538.236 1588.821 1520.358 1598.523 C 1502.479 1608.224 1497.49 1611.966 1494.441 1617.649 C 1491.808 1622.638 1491.53 1637.745 1493.886 1643.843 C 1494.579 1645.783 1496.52 1659.504 1498.183 1674.333 C 1499.707 1689.024 1501.648 1706.071 1502.341 1712.17 C 1503.034 1718.268 1504.004 1728.108 1504.558 1733.929 L 1505.39 1744.739 L 1513.012 1747.095 C 1519.665 1749.174 1521.051 1749.174 1526.179 1747.511 C 1529.644 1746.264 1533.663 1743.215 1536.158 1740.166 L 1540.454 1734.76 L 1541.563 1699.28 C 1542.117 1679.6 1542.949 1662.276 1543.226 1660.613 C 1543.642 1658.95 1549.324 1651.881 1556.115 1644.674 C 1562.768 1637.606 1569.697 1629.845 1571.36 1627.35 C 1573.023 1624.994 1575.934 1622.499 1577.597 1621.945 C 1579.26 1621.391 1592.149 1615.708 1606.286 1609.333 C 1634.975 1596.167 1660.615 1585.079 1661.03 1585.633 C 1661.169 1585.911 1662.416 1604.621 1663.802 1627.489 C 1666.436 1672.255 1666.02 1712.724 1662.694 1732.82 L 1660.753 1743.63 L 1665.465 1745.571 C 1674.613 1749.451 1697.896 1750.837 1755.69 1750.699 C 1787.151 1750.699 1813.068 1750.421 1813.484 1750.006 C 1814.731 1748.897 1806.277 1719.515 1804.336 1718.268 C 1799.901 1715.496 1785.903 1710.922 1766.085 1705.794 C 1744.464 1700.251 1731.852 1696.093 1727.833 1693.044 C 1726.308 1692.073 1723.259 1683.342 1719.794 1669.898 C 1714.25 1649.109 1714.112 1648.139 1715.636 1637.745 C 1716.468 1631.924 1720.626 1613.214 1724.784 1596.167 C 1729.08 1579.12 1732.961 1560.687 1733.376 1555.004 L 1734.208 1544.887 L 1751.255 1532.136 L 1768.302 1519.524 L 1768.718 1486.955 C 1769.827 1400.334 1765.669 1325.354 1756.66 1273.798 C 1754.027 1258.968 1754.165 1257.859 1757.353 1263.957 C 1760.957 1270.887 1767.332 1276.985 1778.142 1284.053 C 1789.23 1291.26 1792.972 1294.587 1799.208 1302.625 C 1807.524 1313.297 1812.652 1323.691 1815.008 1335.195 C 1820.136 1360.557 1832.471 1374.694 1849.518 1374.694 C 1860.883 1374.694 1871 1367.21 1871 1358.756 C 1871 1350.578 1856.448 1327.988 1833.164 1300.408 C 1823.74 1289.32 1817.087 1277.955 1802.673 1248.989 C 1791.17 1225.983 1786.735 1218.36 1780.775 1211.43 L 1776.756 1206.857 L 1776.756 1184.82 C 1776.756 1172.763 1776.063 1150.172 1775.37 1134.649 C 1770.935 1048.167 1761.511 1010.469 1733.515 967.644 L 1726.031 956.141 L 1728.803 938.955 L 1731.713 921.769 L 1746.266 920.938 C 1770.658 919.413 1768.995 920.245 1771.074 907.91 C 1776.202 877.281 1774.262 856.492 1765.114 840.969 C 1762.62 836.811 1759.155 828.634 1757.492 823.091 C 1752.502 806.875 1746.404 795.511 1737.811 786.779 C 1727.278 776.107 1717.577 773.613 1705.38 778.186 Z " fill="rgb(119,119,119)"/><path d=" M 1340.186 895.852 C 1335.197 897.654 1322.169 902.228 1311.22 906.108 C 1292.371 912.761 1290.847 913.592 1280.729 922.462 C 1274.908 927.59 1269.919 932.303 1269.503 932.857 C 1269.087 933.411 1267.286 946.301 1265.484 961.269 C 1260.079 1007.698 1262.296 1000.768 1237.627 1048.583 C 1225.43 1072.144 1215.452 1093.071 1215.452 1094.873 C 1215.452 1096.675 1219.194 1116.355 1223.629 1138.53 L 1231.806 1178.861 L 1244.695 1201.59 L 1257.445 1224.181 L 1254.396 1243.723 C 1250.516 1267.838 1250.654 1267.699 1246.912 1268.254 C 1244.556 1268.531 1242.893 1271.164 1239.29 1280.173 C 1224.737 1316.484 1228.618 1353.766 1250.1 1385.366 C 1256.891 1395.344 1258.138 1398.671 1261.188 1416.272 C 1262.019 1421.261 1263.266 1428.052 1263.959 1431.517 C 1264.652 1434.982 1265.9 1441.773 1266.731 1446.763 C 1270.335 1466.997 1271.166 1471.294 1272.414 1476.699 C 1273.8 1483.49 1276.433 1511.209 1276.433 1520.494 C 1276.433 1524.236 1275.878 1527.147 1275.185 1527.147 C 1274.493 1527.147 1261.742 1532.968 1246.912 1540.175 L 1219.887 1553.064 L 1209.076 1586.049 L 1198.127 1618.896 L 1179.14 1640.101 L 1160.153 1661.306 L 1175.398 1698.31 C 1183.714 1718.683 1190.505 1735.869 1190.505 1736.562 C 1190.505 1740.166 1213.65 1746.125 1228.341 1746.125 C 1252.733 1746.125 1258.138 1736.978 1244.833 1717.852 C 1235.548 1704.408 1231.944 1694.291 1231.251 1678.907 C 1230.143 1658.672 1230.558 1657.564 1249.684 1634.141 L 1266.593 1613.491 L 1282.67 1610.303 C 1291.54 1608.64 1299.024 1607.531 1299.578 1608.086 C 1299.994 1608.501 1303.459 1628.32 1307.062 1652.02 L 1313.576 1694.984 L 1305.26 1709.536 L 1296.945 1724.089 L 1299.439 1736.008 L 1302.073 1747.927 L 1364.856 1747.234 C 1399.365 1746.818 1428.054 1746.125 1428.47 1745.571 C 1429.44 1744.601 1423.342 1723.95 1422.095 1723.95 C 1421.679 1723.95 1408.79 1722.01 1393.545 1719.792 C 1378.299 1717.575 1365.271 1715.634 1364.578 1715.634 C 1363.885 1715.634 1363.747 1710.784 1364.301 1704.824 C 1364.717 1699.003 1366.935 1672.255 1369.291 1645.645 C 1371.508 1618.896 1375.25 1574.407 1377.606 1546.55 C 1379.962 1518.693 1383.427 1479.332 1385.229 1458.959 C 1387.169 1438.586 1388.694 1421.261 1388.694 1420.43 C 1388.694 1419.598 1396.178 1419.044 1410.176 1419.044 L 1431.658 1419.044 L 1431.658 1394.236 L 1431.658 1369.566 L 1411.978 1351.271 C 1400.474 1340.461 1390.495 1329.928 1387.724 1325.354 C 1383.427 1318.563 1383.011 1317.177 1383.843 1311.218 C 1384.259 1307.614 1385.229 1288.211 1385.922 1267.977 C 1386.892 1235.268 1387.585 1227.784 1392.297 1199.373 C 1397.148 1170.407 1397.564 1165.14 1397.564 1141.856 C 1397.564 1120.374 1397.009 1114.553 1394.653 1105.822 C 1388.555 1083.924 1384.536 1075.747 1372.478 1061.472 L 1360.975 1047.89 L 1360.975 1030.288 L 1360.975 1012.687 L 1366.242 1013.518 C 1378.438 1015.32 1404.493 1017.122 1405.325 1016.152 C 1405.879 1015.597 1410.453 1008.668 1415.442 1000.768 C 1425.698 984.968 1426.391 982.335 1422.649 967.921 C 1416.135 942.974 1393.683 919.275 1354.045 895.575 L 1349.195 892.665 L 1340.186 895.852 Z " fill="rgb(119,119,119)"/><path d=" M 936.185 934.52 L 903.061 938.816 L 888.232 956.418 L 873.402 974.019 L 872.571 984.137 C 872.016 989.68 870.908 1006.589 869.799 1021.557 L 867.858 1048.721 L 855.385 1065.214 C 845.268 1078.242 842.08 1083.647 839.447 1091.963 C 837.506 1097.645 828.498 1125.502 819.212 1153.637 L 802.581 1204.916 L 803.967 1249.266 C 805.491 1292.923 807.293 1311.356 816.717 1377.466 C 818.519 1390.632 818.935 1424.588 817.41 1451.059 L 816.44 1468.66 L 841.11 1477.808 L 865.78 1487.093 L 861.345 1510.238 L 857.048 1533.384 L 819.489 1606.838 C 774.308 1695.261 762.804 1718.129 763.636 1718.822 C 764.052 1719.099 782.762 1727.553 805.214 1737.532 L 846.099 1755.688 L 867.304 1757.213 C 879.085 1757.906 889.202 1758.598 890.033 1758.598 C 891.004 1758.598 891.142 1755.827 890.588 1750.56 C 888.786 1735.315 889.756 1736.562 864.116 1715.496 L 840.001 1695.677 L 842.496 1691.519 C 851.227 1677.244 915.258 1567.478 916.228 1565.26 C 916.921 1563.736 918.722 1550.431 920.108 1535.601 C 921.633 1520.91 923.157 1508.575 923.435 1508.298 C 923.712 1508.021 926.068 1508.575 928.701 1509.546 C 931.334 1510.654 939.511 1513.842 946.995 1516.614 L 960.439 1521.88 L 960.439 1572.19 L 960.439 1622.499 L 994.395 1679.323 L 1028.489 1736.008 L 1025.578 1743.215 L 1022.806 1750.421 L 1035.003 1749.59 C 1041.655 1749.174 1058.563 1748.343 1072.7 1747.511 C 1086.837 1746.818 1105.685 1745.848 1114.694 1745.293 C 1123.564 1744.878 1130.909 1744.046 1130.909 1743.63 C 1130.909 1743.076 1128.83 1740.304 1126.336 1737.394 C 1122.732 1733.097 1115.941 1729.494 1088.777 1717.02 C 1070.621 1708.705 1055.376 1701.636 1054.96 1701.221 C 1054.683 1700.805 1053.574 1697.201 1052.604 1693.182 C 1051.634 1689.163 1047.337 1670.869 1043.041 1652.713 C 1038.745 1634.418 1033.617 1612.936 1031.676 1604.898 C 1029.736 1596.86 1026.964 1585.218 1025.578 1579.12 C 1024.192 1573.021 1021.698 1562.627 1020.173 1555.836 C 1018.51 1549.183 1016.015 1538.512 1014.491 1531.998 C 1012.966 1525.484 1010.471 1514.951 1008.947 1508.437 C 1006.729 1499.29 999.938 1484.044 977.763 1438.447 C 953.094 1387.722 949.352 1379.267 949.352 1373.585 C 949.352 1369.982 951.153 1344.342 953.509 1316.484 L 957.529 1265.898 L 968.755 1239.565 L 980.119 1213.232 L 974.437 1161.952 L 968.616 1110.673 L 957.667 1092.517 C 951.569 1082.538 946.58 1073.668 946.58 1072.698 C 946.58 1071.866 949.49 1065.353 953.094 1058.007 L 959.608 1044.841 L 964.597 1045.534 C 967.23 1045.949 976.377 1046.504 984.97 1046.781 L 1000.354 1047.197 L 1008.808 1035.832 L 1017.263 1024.329 L 1017.263 1010.747 C 1017.263 981.365 1010.194 966.674 984.139 941.866 C 977.07 935.213 970.972 929.946 970.418 929.946 C 969.863 930.085 954.48 932.164 936.185 934.52 Z " fill="none"/><path d=" M 544.519 1067.986 C 540.916 1075.331 539.53 1092.378 541.47 1103.05 C 542.44 1108.317 541.886 1112.197 537.174 1128.413 L 531.63 1147.4 L 511.395 1165.972 L 491.299 1184.543 L 487.973 1250.237 C 486.31 1286.271 483.677 1336.996 482.429 1362.913 L 479.935 1410.035 L 487.141 1424.588 L 494.348 1439.14 L 492.824 1487.648 L 491.299 1536.156 L 472.866 1567.339 L 454.295 1598.523 L 448.89 1651.881 C 445.979 1681.263 443.484 1707.042 443.623 1709.398 C 443.623 1713.278 444.732 1714.248 463.858 1724.92 L 484.092 1736.423 L 514.306 1736.423 C 535.233 1736.423 544.658 1736.008 544.658 1734.899 C 544.658 1733.513 535.372 1711.338 534.263 1710.368 C 534.125 1710.229 528.165 1710.645 521.097 1711.615 L 508.208 1713.14 L 498.783 1703.715 L 489.22 1694.291 L 489.22 1670.453 L 489.22 1646.753 L 505.574 1631.785 C 514.444 1623.47 522.621 1615.986 523.592 1615.015 C 524.7 1614.184 529.967 1595.474 535.511 1573.437 L 545.489 1533.384 L 553.944 1532.968 L 562.398 1532.552 L 563.229 1539.898 C 563.645 1543.917 565.031 1559.716 566.14 1574.962 C 568.635 1606.561 571.684 1622.777 579.861 1647.585 C 584.989 1662.83 585.543 1665.879 584.573 1671.977 C 583.741 1677.937 578.336 1720.069 577.505 1727.138 C 577.227 1729.494 579.861 1729.632 625.458 1729.494 L 673.689 1729.494 L 686.994 1722.703 C 694.339 1719.099 699.744 1715.773 699.051 1715.357 C 698.358 1714.941 685.053 1709.121 669.392 1702.468 C 653.731 1695.816 640.842 1690.272 640.565 1689.995 C 640.288 1689.717 639.595 1681.402 636.13 1634.834 C 635.437 1624.44 634.051 1607.254 633.358 1596.721 C 632.526 1586.326 631.279 1569.834 630.586 1560.132 C 629.893 1550.431 628.507 1532.275 627.675 1519.94 L 626.151 1497.349 L 612.985 1456.464 C 605.778 1434.012 599.264 1413.639 598.432 1411.421 C 597.185 1407.818 597.739 1405.739 602.451 1396.176 L 607.718 1385.088 L 608.411 1277.678 L 609.104 1170.407 L 627.814 1167.635 C 638.07 1166.11 646.94 1164.308 647.494 1163.477 C 648.049 1162.784 649.712 1158.072 651.375 1153.221 C 654.701 1143.381 654.424 1140.332 647.633 1119.681 C 639.872 1095.982 627.537 1081.568 601.758 1065.907 L 594.552 1061.472 L 571.129 1061.472 L 547.707 1061.472 L 544.519 1067.986 Z " fill="rgb(119,119,119)"/><path d=" M 333.857 1384.257 C 330.392 1386.336 315.562 1396.314 301.01 1406.432 C 276.618 1423.063 271.351 1425.973 238.088 1441.357 C 217.992 1450.643 187.086 1463.532 169.207 1470.185 L 136.638 1482.104 L 130.54 1498.042 C 127.213 1506.774 122.778 1518.416 120.838 1523.682 L 117.235 1533.522 L 131.371 1556.113 C 143.152 1575.1 145.231 1579.258 143.706 1580.921 C 142.875 1582.169 131.926 1594.919 119.452 1609.472 L 97 1635.943 L 97.277 1650.357 L 97.693 1664.771 L 121.947 1675.719 C 135.252 1681.679 146.755 1686.53 147.587 1686.53 C 148.418 1686.53 150.497 1682.372 152.299 1677.105 C 154.101 1671.977 155.902 1667.127 156.18 1666.295 C 156.595 1665.325 152.16 1663.107 145.231 1660.89 C 138.855 1658.811 133.312 1656.732 132.757 1656.178 C 132.203 1655.762 136.222 1647.031 141.627 1636.913 L 151.329 1618.48 L 158.397 1618.896 L 165.465 1619.312 L 167.96 1626.241 C 170.039 1632.201 170.455 1638.022 170.455 1665.463 L 170.455 1697.756 L 176.414 1708.012 L 182.235 1718.406 L 217.992 1718.406 L 253.611 1718.406 L 253.611 1712.447 C 253.611 1706.626 253.472 1706.487 234.208 1690.133 L 214.805 1673.502 L 215.082 1625.964 L 215.498 1578.427 L 233.376 1570.111 C 243.216 1565.537 251.255 1561.795 251.393 1561.795 C 251.532 1561.795 258.046 1574.685 265.669 1590.623 L 279.805 1619.312 L 277.172 1639.408 C 275.647 1650.495 274.539 1660.751 274.4 1662.276 C 274.4 1665.879 287.289 1676.135 289.923 1674.611 C 290.893 1674.056 298.793 1667.681 307.385 1660.336 C 320.829 1649.248 323.046 1646.892 322.353 1644.12 C 321.799 1642.318 319.859 1633.587 318.057 1624.717 C 316.117 1615.847 314.038 1607.808 313.622 1606.977 C 313.068 1606.145 307.524 1599.077 301.149 1591.316 C 294.773 1583.693 289.645 1576.209 289.645 1574.962 C 289.645 1572.744 302.396 1528.256 304.752 1522.435 C 305.306 1520.91 306.97 1531.582 308.771 1548.768 C 311.543 1576.071 312.098 1578.704 318.057 1595.058 C 323.739 1610.58 327.897 1624.578 343.974 1682.649 L 348.548 1699.003 L 368.228 1699.003 C 379.177 1699.003 388.047 1698.587 388.047 1698.033 C 388.047 1697.617 379.87 1668.374 369.753 1633.31 L 351.597 1569.418 L 348.548 1518.831 C 346.885 1490.974 345.637 1468.106 345.776 1467.967 C 345.776 1467.829 351.458 1469.492 358.249 1471.848 C 372.524 1476.699 371 1477.392 381.672 1461.592 C 389.156 1450.366 391.373 1443.298 390.403 1432.21 C 389.433 1420.014 380.147 1398.393 372.386 1390.216 C 365.595 1383.009 358.942 1380.238 348.825 1380.238 C 341.618 1380.238 338.985 1380.931 333.857 1384.257 Z " fill="rgb(119,119,119)"/></g><g><path d=" M 797.405 479.298 C 796.205 479.498 794.305 480.698 793.205 481.898 C 789.605 485.698 700.805 646.798 701.805 647.798 C 702.505 648.498 739.005 665.898 836.005 711.598 C 848.405 717.398 852.805 719.098 853.605 718.198 C 854.205 717.598 875.705 682.398 901.405 639.898 C 936.105 582.298 948.005 561.898 948.005 559.598 C 948.005 546.198 919.005 523.398 874.505 501.598 C 838.505 484.098 812.105 476.398 797.405 479.298 Z " fill="rgb(184,248,8)"/><path d=" M 980.105 563.298 C 977.305 565.698 878.905 730.898 879.805 731.798 C 880.205 732.198 900.805 743.098 925.505 755.998 C 958.905 773.398 971.805 780.598 975.705 784.098 C 992.405 798.998 994.205 830.998 981.505 883.498 C 979.505 891.398 978.105 898.098 978.305 898.198 C 978.505 898.398 993.905 876.398 1012.505 849.298 C 1031.205 822.298 1066.905 770.398 1091.905 734.098 C 1127.805 681.998 1137.505 667.298 1137.805 664.398 C 1138.505 658.098 1134.705 652.298 1121.005 638.598 C 1114.105 631.698 1104.005 622.598 1098.505 618.498 C 1048.705 580.798 991.305 553.998 980.105 563.298 Z " fill="rgb(184,248,8)"/><path d=" M 653.505 664.798 C 649.505 666.198 644.105 670.298 640.305 674.598 C 638.605 676.498 627.205 693.598 615.005 712.598 C 602.705 731.598 564.305 790.998 529.705 844.598 C 495.005 898.198 464.905 945.498 462.905 949.598 C 454.205 966.798 453.905 980.598 461.905 996.398 C 465.205 1002.898 461.705 997.898 621.005 1226.098 C 700.605 1340.198 740.505 1398.098 740.705 1400.098 C 740.905 1401.698 738.405 1421.098 735.105 1443.098 C 729.005 1483.298 719.905 1544.598 705.005 1644.298 C 700.605 1673.898 694.905 1711.498 692.505 1727.898 C 690.005 1744.298 688.005 1757.898 688.005 1758.098 C 688.005 1758.398 799.205 1758.598 935.005 1758.598 L 1182.005 1758.598 L 1182.005 1605.198 L 1182.005 1451.698 L 1192.905 1429.398 C 1198.905 1417.098 1217.605 1379.198 1234.505 1345.098 C 1303.105 1206.798 1322.305 1167.698 1325.505 1159.498 C 1329.905 1148.498 1333.505 1134.798 1335.405 1121.598 C 1337.405 1108.098 1339.205 1071.998 1338.805 1054.398 L 1338.505 1040.698 L 1266.505 1115.198 C 1226.905 1156.098 1190.405 1193.998 1185.405 1199.298 L 1176.305 1208.898 L 1115.405 1177.598 C 1081.905 1160.398 1051.005 1144.498 1046.805 1142.298 C 1042.505 1140.098 1038.805 1138.398 1038.605 1138.698 C 1038.305 1138.998 1029.105 1187.298 1018.005 1246.098 C 995.805 1364.798 996.905 1358.898 996.505 1358.398 C 996.305 1358.198 994.705 1351.798 993.005 1344.098 C 985.805 1312.598 973.605 1272.598 962.005 1242.098 C 919.205 1129.998 850.605 1046.198 757.905 992.798 C 746.205 986.098 718.705 972.098 710.005 968.498 C 707.005 967.298 704.205 965.998 703.705 965.598 C 702.505 964.598 745.405 883.098 747.105 883.298 C 747.905 883.398 754.405 886.098 761.505 889.398 C 787.505 901.398 807.905 907.498 830.505 910.198 C 875.905 915.698 917.905 899.598 944.005 866.798 C 962.805 843.098 971.405 812.598 961.705 803.798 C 960.505 802.798 923.505 784.598 879.505 763.598 C 835.505 742.498 772.505 712.398 739.505 696.598 C 706.505 680.798 676.405 666.898 672.605 665.698 C 665.305 663.398 658.305 663.098 653.505 664.798 Z  M 906.005 1440.298 C 930.905 1450.998 952.105 1457.798 973.505 1461.798 C 983.905 1463.698 988.705 1463.998 1009.005 1463.998 C 1033.405 1463.998 1043.505 1462.998 1069.505 1458.198 C 1076.405 1456.998 1082.005 1455.998 1082.005 1456.198 C 1082.005 1456.298 1011.405 1506.798 1005.905 1510.598 C 1005.505 1510.898 1001.105 1535.198 996.105 1564.598 C 991.105 1593.998 984.605 1632.698 981.505 1650.598 C 978.505 1668.498 974.805 1690.298 973.405 1699.098 C 971.905 1707.898 970.305 1715.498 969.805 1715.998 C 969.405 1716.598 969.005 1714.098 969.005 1710.498 C 969.005 1706.898 967.005 1659.198 964.505 1604.498 L 960.005 1505.098 L 922.705 1468.398 C 881.405 1427.598 883.105 1430.498 906.005 1440.298 Z " fill="rgb(184,248,8)"/><path d=" M 1157.205 697.198 C 1156.505 697.498 1114.105 754.898 1063.005 824.598 C 988.705 925.898 970.005 952.098 970.005 954.398 C 970.005 970.998 1058.705 1051.398 1077.005 1051.598 C 1079.205 1051.598 1095.305 1034.098 1173.505 947.398 C 1225.205 890.098 1271.705 838.598 1276.805 832.898 C 1285.705 822.898 1286.005 822.398 1286.005 817.798 C 1286.005 806.498 1272.105 785.898 1247.005 760.198 C 1219.405 731.898 1191.705 709.798 1172.505 700.598 C 1166.405 697.698 1159.605 696.198 1157.205 697.198 Z " fill="rgb(184,248,8)"/><path d=" M 1289.905 858.798 C 1288.905 859.498 1245.405 907.298 1193.105 964.998 C 1085.905 1083.098 1095.305 1070.998 1101.505 1083.198 C 1109.805 1099.598 1135.205 1127.598 1156.105 1143.398 C 1162.505 1148.198 1172.205 1152.898 1174.905 1152.398 C 1176.505 1152.098 1224.805 1109.198 1349.205 997.398 C 1369.205 979.398 1379.205 969.698 1379.605 967.998 C 1382.905 955.098 1354.505 910.198 1323.505 879.098 C 1306.805 862.398 1294.605 854.998 1289.905 858.798 Z " fill="rgb(184,248,8)"/></g></g></svg>
